# xmcd CD database file
#
# Track frame offsets:
#	150
#	12008
#	29931
#	44206
#	55828
#	69788
#	84910
#	98080
#	115314
#	118784
#	134977
#	145369
#
# Disc length: 2179 seconds
#
# Revision: 0
# Processed by: cddbd v1.5.1PL2 Copyright (c) Steve Scherf et al.
# Submitted via: CDex 1.51
#
DISCID=b108810c
DTITLE=Bill Wharton  - Miami Blues and Liquid Summer
DYEAR=1998
DGENRE=Blues
TTITLE0=Let The Big Dog Eat
TTITLE1=The Sauce Boss
TTITLE2=Alligator
TTITLE3=The Lovin'est Man
TTITLE4=Boogie Woogie Washer Woman
TTITLE5=Great Big Fanny
TTITLE6=Straight Out Of The Bottle
TTITLE7=I Can't Be Satisfied
TTITLE8=Jefferson County Hambone
TTITLE9=Cypress Grove Blues
TTITLE10=Mighty Crazy
TTITLE11=Smuggler's Cove
EXTD=YEAR: 1998
EXTT0=
EXTT1=
EXTT2=
EXTT3=
EXTT4=
EXTT5=
EXTT6=
EXTT7=
EXTT8=
EXTT9=
EXTT10=
EXTT11=
PLAYORDER=
